:version 1.10
:name ASF
:units
  mass 1
  length 1
  angle deg
:documentation
  ASF file generated by Kaydara
:root
  axis xyz
  order  tx ty tz rx ry rz
  position 0 0 0
  orientation 0 0 0
:bonedata
  begin
    id 1
    name LeftUpLegDummy
    direction 1 -2.30186e-007 -8.31532e-007
    length 2.93387
    axis 0 0 0 xyz
  end
  begin
    id 2
    name LeftUpLeg
    direction -1.82929e-007 -1 -1.48925e-009
    length 17.3336
    axis -3.48766 0.00143442 -0.000521554 xyz
    dof rx ry rz
  end
  begin
    id 3
    name LeftLeg
    direction -1.82929e-007 -1 -5.23717e-011
    length 14.9995
    axis 3.68178 -0.00654042 -0.000282425 xyz
    dof rx ry rz
  end
  begin
    id 4
    name LeftFoot
    direction 8.31532e-007 -4.54534e-011 1
    length 6.74421
    axis 1.87234e-006 4.66016e-005 -5.96866e-006 xyz
    dof rx ry rz
  end
  begin
    id 5
    name LeftToes
    direction 0.00818058 -0.00485161 0.999955
    length 3.85048
    axis 1.06247e-005 4.65869e-005 -5.96999e-006 xyz
    dof rx ry rz
  end
  begin
    id 6
    name SpineDummy
    direction -5.8607e-008 0.943407 -0.331637
    length 5.93572
    axis 0 0 0 xyz
  end
  begin
    id 7
    name Spine
    direction -1.04988e-007 0.999988 0.00495137
    length 10.1015
    axis -0.001389 0.000121417 6.61666e-006 xyz
    dof rx ry rz
  end
  begin
    id 8
    name Spine1
    direction 0 0 0
    length 0
    axis -0.001389 0.00012144 6.56766e-006 xyz
    dof rx ry rz
  end
  begin
    id 9
    name RightShoulderDummy
    direction -0.98348 0.17941 -0.0240696
    length 3.59882
    axis -0.001389 0.00012144 6.56766e-006 xyz
  end
  begin
    id 10
    name RightShoulder
    direction -0.978693 0.204882 0.0135597
    length 2.70001
    axis 0.215806 0.000203631 -0.00679732 xyz
    dof rx ry rz
  end
  begin
    id 11
    name RightArm
    direction -1 3.85509e-006 8.31394e-007
    length 10.2459
    axis -23.2009 -0.134239 -0.964098 xyz
    dof rx ry rz
  end
  begin
    id 12
    name RightForeArm
    direction -1 3.85569e-006 8.3129e-007
    length 8.16799
    axis -9.92322 0.0658061 0.17887 xyz
    dof rx ry rz
  end
  begin
    id 13
    name RightHand
    direction -0.992843 -0.0414604 0.112003
    length 5.28593
    axis -0.00960638 0.00330669 -0.185225 xyz
    dof rx ry rz
  end
  begin
    id 14
    name LeftShoulder1Dummy
    direction 0.983523 0.179172 -0.0240748
    length 3.59866
    axis -0.001389 0.00012144 6.56766e-006 xyz
  end
  begin
    id 15
    name LeftShoulder1
    direction 0.978627 0.205195 0.0135605
    length 2.70019
    axis -0.001389 0.00012144 6.57583e-006 xyz
    dof rx ry rz
  end
  begin
    id 16
    name LeftArm
    direction 1 3.51895e-006 -8.60188e-007
    length 10.2459
    axis -23.1894 0.134785 0.967513 xyz
    dof rx ry rz
  end
  begin
    id 17
    name LeftForeArm
    direction 1 3.51921e-006 -7.32029e-007
    length 8.16799
    axis -9.91835 -0.0656957 -0.177789 xyz
    dof rx ry rz
  end
  begin
    id 18
    name LeftHand
    direction 0.992938 -0.0411636 0.11126
    length 5.32135
    axis -0.00960237 -0.00340661 0.185177 xyz
    dof rx ry rz
  end
  begin
    id 19
    name HEadDummy
    direction 1.01974e-006 0.999861 -0.016675
    length 2.99946
    axis -0.001389 0.00012144 6.56766e-006 xyz
  end
  begin
    id 20
    name HEad
    direction -0.0222689 0.980941 0.193023
    length 5.12695
    axis -0.001389 0.00012144 6.56766e-006 xyz
    dof rx ry rz
  end
  begin
    id 21
    name RightUpLegDummy
    direction -1 2.30186e-007 8.31532e-007
    length 2.93387
    axis 0 0 0 xyz
  end
  begin
    id 22
    name RightUpLeg
    direction -1.82966e-007 -1 1.56832e-007
    length 17.3336
    axis -3.4909 -0.000906625 0.00028951 xyz
    dof rx ry rz
  end
  begin
    id 23
    name RightLeg
    direction -1.82786e-007 -1 -1.80317e-007
    length 14.9995
    axis 3.68513 0.0193739 -0.131021 xyz
    dof rx ry rz
  end
  begin
    id 24
    name RightFoot
    direction 8.31721e-007 -4.63324e-011 1
    length 6.74421
    axis 4.81691e-005 -0.120479 -0.188785 xyz
    dof rx ry rz
  end
  begin
    id 25
    name RightToes
    direction 0.00124746 -0.014064 0.9999
    length 3.85082
    axis 0.000481921 0.542163 -0.142575 xyz
    dof rx ry rz
  end
:hierarchy
  begin
    root LeftUpLegDummy SpineDummy RightUpLegDummy
    LeftUpLegDummy LeftUpLeg
    LeftUpLeg LeftLeg
    LeftLeg LeftFoot
    LeftFoot LeftToes
    SpineDummy Spine
    Spine Spine1
    Spine1 RightShoulderDummy LeftShoulder1Dummy HEadDummy
    RightShoulderDummy RightShoulder
    RightShoulder RightArm
    RightArm RightForeArm
    RightForeArm RightHand
    LeftShoulder1Dummy LeftShoulder1
    LeftShoulder1 LeftArm
    LeftArm LeftForeArm
    LeftForeArm LeftHand
    HEadDummy HEad
    RightUpLegDummy RightUpLeg
    RightUpLeg RightLeg
    RightLeg RightFoot
    RightFoot RightToes
  end

:SAMPLES-PER-SECOND 30
:FULLY-SPECIFIED
:DEGREES
99
root  0.280977 33.6007 -11.845 5.31683 -6.10805 -2.72974
LeftUpLeg  -23.7866 15.8596 8.45482
LeftLeg  44.3351 11.6399 9.82327
LeftFoot  -4.66703 -0.0599228 -1.47042
LeftToes  -9.84524 8.556e-007 1.17171e-007
Spine  4.35767 -3.49448 5.26398
Spine1  7.72462 -7.91301 10.7946
RightShoulder  0.0977808 6.65754 8.17035
RightArm  -41.9966 -17.9115 62.3172
RightForeArm  32.1563 11.0806 1.97497
RightHand  1.53854 -14.5691 -11.6176
LeftShoulder1  0.0576706 -0.132762 -1.41118
LeftArm  16.1757 -25.1135 -87.0449
LeftForeArm  127.243 -47.7011 -168.545
LeftHand  2.53532 15.9169 17.6115
HEad  23.9373 -2.54163 1.48056
RightUpLeg  -15.7285 -12.7664 6.3015
RightLeg  10.8415 3.00701 0.37886
RightFoot  4.42851 0.0105875 0.103707
RightToes  -25.4004 -0.113564 -0.218761
100
root  0.489682 33.5969 -11.9218 5.6357 -6.24559 -2.89547
LeftUpLeg  -21.124 14.8874 8.05023
LeftLeg  46.1086 10.8775 9.77966
LeftFoot  -5.78493 -0.0857294 -1.69662
LeftToes  -9.02699 8.556e-007 1.17171e-007
Spine  4.11836 -3.63762 5.3163
Spine1  7.29254 -8.15725 10.8105
RightShoulder  0.0941066 6.26092 8.00853
RightArm  -41.7937 -17.8686 62.1198
RightForeArm  31.3884 11.9842 2.14094
RightHand  1.47535 -14.3789 -11.2811
LeftShoulder1  0.0521446 -0.173388 -1.48027
LeftArm  16.5846 -24.865 -87.2344
LeftForeArm  128.273 -47.4671 -168.634
LeftHand  2.46228 15.547 17.5155
HEad  24.0621 -1.76709 1.46293
RightUpLeg  -16.0452 -12.6411 6.20348
RightLeg  10.4448 3.06148 0.364229
RightFoot  5.09887 0.0105492 0.140605
RightToes  -26.2765 -0.119139 -0.225272
101
root  0.712452 33.5753 -12.0031 5.93295 -6.33499 -3.2833
LeftUpLeg  -17.485 13.926 7.58483
LeftLeg  44.8385 10.4956 9.04096
LeftFoot  -7.61579 -0.135553 -2.0364
LeftToes  -13.0713 8.556e-007 1.17171e-007
Spine  3.87015 -3.82643 5.47008
Spine1  6.81468 -8.48967 11.0326
RightShoulder  0.0907322 5.87163 7.69132
RightArm  -40.9307 -17.7034 61.9611
RightForeArm  29.5913 13.4248 2.40827
RightHand  1.42205 -14.3773 -10.8642
LeftShoulder1  0.0480595 -0.392781 -1.52488
LeftArm  17.0257 -24.6583 -87.3947
LeftForeArm  129.992 -47.2597 -168.709
LeftHand  2.35822 15.1159 17.2579
HEad  24.0391 -1.33636 1.4059
RightUpLeg  -16.411 -12.7847 6.34914
RightLeg  10.2311 3.30787 0.380935
RightFoot  5.60059 0.00915162 0.191073
RightToes  -26.7488 -0.123595 -0.228746
102
root  0.927091 33.5383 -12.1078 6.39433 -6.28337 -3.98655
LeftUpLeg  -13.4111 12.9852 7.28668
LeftLeg  40.3073 11.809 8.64476
LeftFoot  -9.24961 -0.205238 -2.53673
LeftToes  -21.9128 8.556e-007 1.17171e-007
Spine  3.5469 -4.0659 5.68104
Spine1  6.17987 -8.90642 11.3645
RightShoulder  0.0877053 5.55179 7.54007
RightArm  -40.1379 -17.2746 61.8126
RightForeArm  28.1697 14.7921 2.66483
RightHand  1.38921 -14.1747 -10.7638
LeftShoulder1  0.043947 -0.512866 -1.45165
LeftArm  17.9671 -24.5786 -87.582
LeftForeArm  132.292 -47.162 -168.739
LeftHand  2.2293 14.1571 17.432
HEad  23.8457 -0.987811 1.59366
RightUpLeg  -16.9439 -12.7119 6.80719
RightLeg  10.0069 3.26065 0.362619
RightFoot  6.20555 0.00893053 0.220906
RightToes  -27.5567 -0.127463 -0.234631
103
root  1.12956 33.5454 -12.2731 6.85108 -5.98922 -4.05285
LeftUpLeg  -9.55375 11.9 6.45688
LeftLeg  32.0024 14.6675 7.76657
LeftFoot  -11.5588 -0.354602 -3.50246
LeftToes  -18.6331 8.556e-007 1.17171e-007
Spine  3.15987 -4.34004 5.67879
Spine1  5.50487 -9.31691 11.2487
RightShoulder  0.0817696 5.18113 7.35574
RightArm  -39.573 -16.5909 62.1159
RightForeArm  27.1391 16.0527 2.90418
RightHand  1.38292 -13.9278 -10.9108
LeftShoulder1  0.0345834 -0.597829 -1.57491
LeftArm  18.7948 -24.3299 -87.1462
LeftForeArm  134.073 -46.8815 -168.842
LeftHand  2.06145 13.1046 17.4257
HEad  23.3393 -0.819202 1.75802
RightUpLeg  -17.5777 -12.7863 6.69604
RightLeg  9.6288 3.17688 0.33217
RightFoot  7.02821 0.00710329 0.272987
RightToes  -28.0441 -0.130687 -0.238145
104
root  1.33389 33.6209 -12.5138 7.36016 -5.83599 -3.06958
LeftUpLeg  -6.81687 11.5524 4.69255
LeftLeg  23.5709 16.0805 5.71975
LeftFoot  -11.6506 -0.366932 -3.59544
LeftToes  -13.9008 8.556e-007 1.17171e-007
Spine  2.6938 -4.43654 5.17462
Spine1  4.80357 -9.28626 10.125
RightShoulder  0.0716122 4.84539 7.45137
RightArm  -39.7324 -16.0605 63.0652
RightForeArm  26.2827 17.2364 3.13172
RightHand  1.39637 -13.7999 -11.1257
LeftShoulder1  0.0181597 -0.811547 -1.52513
LeftArm  19.2528 -23.5313 -85.9367
LeftForeArm  135.456 -46.3863 -169.027
LeftHand  1.79666 12.0702 16.4932
HEad  22.587 -1.38979 1.92802
RightUpLeg  -18.4069 -12.6063 5.6057
RightLeg  9.0358 2.84843 0.268248
RightFoot  8.13436 0.00533869 0.321091
RightToes  -28.2396 -0.132492 -0.241896
105
root  1.54297 33.7729 -12.8027 7.61268 -6.3132 -1.28224
LeftUpLeg  -5.48471 12.722 2.57002
LeftLeg  18.447 15.3203 3.9814
LeftFoot  -9.2425 -0.21212 -2.62378
LeftToes  -14.0945 8.556e-007 1.17171e-007
Spine  2.36772 -4.30935 4.24966
Spine1  4.42418 -8.78388 8.20518
RightShoulder  0.0484562 4.60671 7.55876
RightArm  -40.7244 -15.4981 64.8401
RightForeArm  25.7011 18.2475 3.32842
RightHand  1.40919 -13.4931 -11.4949
LeftShoulder1  -0.0011581 -0.77048 -1.85272
LeftArm  19.461 -22.421 -84.0172
LeftForeArm  137.637 -45.6913 -169.28
LeftHand  1.55005 10.7661 15.9591
HEad  21.8542 -2.04564 2.0305
RightUpLeg  -18.7152 -11.0774 3.47191
RightLeg  7.56026 1.6898 0.115909
RightFoot  10.0335 0.0106067 0.256702
RightToes  -28.9739 -0.133559 -0.244771
106
root  1.77271 33.9266 -13.0794 7.42164 -7.78897 0.507367
LeftUpLeg  -4.24828 13.4647 0.370456
LeftLeg  14.8012 15.5592 3.01616
LeftFoot  -6.74466 -0.112533 -1.90955
LeftToes  -14.3589 8.556e-007 1.17171e-007
Spine  2.2122 -3.92891 3.09786
Spine1  4.2702 -7.90691 5.93825
RightShoulder  0.0242367 4.54196 7.32059
RightArm  -42.159 -15.6967 67.7869
RightForeArm  25.1195 20.6613 3.8078
RightHand  1.43492 -13.2951 -11.89
LeftShoulder1  -0.00797711 -0.823299 -1.54404
LeftArm  18.8096 -21.0407 -82.3693
LeftForeArm  139.739 -44.7236 -169.625
LeftHand  1.3718 9.5754 15.8879
HEad  22.0482 -2.10525 2.23667
RightUpLeg  -18.7301 -9.54829 1.32943
RightLeg  6.20138 1.51107 0.0677637
RightFoot  11.9267 0.00868533 0.294384
RightToes  -28.975 -0.134326 -0.244779
107
root  1.98936 33.9728 -13.326 7.49681 -9.10526 1.14724
LeftUpLeg  -3.33587 15.0472 -0.719754
LeftLeg  11.5608 15.2246 2.07998
LeftFoot  -5.44602 -0.0708717 -1.49004
LeftToes  -14.0683 8.556e-007 1.17171e-007
Spine  1.95565 -3.40924 2.35704
Spine1  3.83244 -6.81381 4.49375
RightShoulder  0.0172559 4.54433 6.52324
RightArm  -42.8355 -16.6582 70.79
RightForeArm  24.1828 23.6582 4.42573
RightHand  1.39857 -13.2084 -11.6602
LeftShoulder1  -0.0111327 -0.885128 -1.41416
LeftArm  18.9948 -20.2374 -81.3965
LeftForeArm  141.627 -43.9935 -169.877
LeftHand  1.2492 8.49935 16.3098
HEad  22.3328 -1.62171 1.98548
RightUpLeg  -19.2079 -9.20688 0.627585
RightLeg  5.49375 2.38619 0.0766882
RightFoot  13.1965 -0.017806 0.531454
RightToes  -28.9809 -0.135228 -0.24655
108
root  2.17387 33.9652 -13.5435 7.66424 -9.30578 1.66505
LeftUpLeg  -3.11607 16.6082 -1.53683
LeftLeg  9.58086 13.7973 1.41049
LeftFoot  -4.79324 -0.0491483 -1.17427
LeftToes  -13.8335 8.556e-007 1.17171e-007
Spine  1.66482 -3.1445 1.80551
Spine1  3.30039 -6.23864 3.41731
RightShoulder  0.0116029 4.70584 5.41893
RightArm  -42.1476 -17.4415 73.1641
RightForeArm  23.3291 25.2531 4.76654
RightHand  1.30774 -13.0421 -11.0278
LeftShoulder1  -0.0136871 -0.897702 -1.75597
LeftArm  19.303 -20.0723 -80.474
LeftForeArm  143.462 -43.5003 -170.042
LeftHand  1.13106 7.41779 16.9306
HEad  22.0683 -0.933456 2.03398
RightUpLeg  -19.5932 -10.0451 0.201494
RightLeg  4.68374 3.361 0.0599166
RightFoot  14.0148 -0.0526548 0.805886
RightToes  -28.8442 -0.136703 -0.249064
109
root  2.32509 33.9471 -13.7215 7.50233 -8.59041 2.20354
LeftUpLeg  -2.88013 16.1176 -2.26252
LeftLeg  8.42467 13.379 1.0989
LeftFoot  -4.4465 -0.0407679 -1.05009
LeftToes  -13.582 8.556e-007 1.17171e-007
Spine  1.52767 -3.0654 1.25647
Spine1  3.06203 -6.04769 2.32858
RightShoulder  0.00749682 4.72389 4.82655
RightArm  -40.6298 -17.5793 74.5385
RightForeArm  23.9822 25.3592 4.78943
RightHand  1.20696 -12.9173 -10.2564
LeftShoulder1  -0.0156873 -1.11837 -2.11109
LeftArm  18.9423 -20.3674 -79.9242
LeftForeArm  144.43 -43.4408 -170.059
LeftHand  1.01263 6.48855 17.3341
HEad  21.6511 -0.660991 2.52133
RightUpLeg  -19.3574 -10.4626 -0.530347
RightLeg  3.71954 3.0207 0.0029726
RightFoot  14.7922 -0.050475 0.766354
RightToes  -29.3086 -0.139189 -0.251972
110
root  2.44111 33.9525 -13.8558 7.35237 -7.52275 2.37079
LeftUpLeg  -2.94824 15.4458 -2.57338
LeftLeg  8.11445 13.062 1.0028
LeftFoot  -4.3671 -0.038281 -1.00398
LeftToes  -12.8014 8.556e-007 1.17171e-007
Spine  1.38743 -3.02327 0.903636
Spine1  2.8013 -5.94638 1.63628
RightShoulder  0.00406251 4.79961 4.36612
RightArm  -39.435 -17.7108 75.2369
RightForeArm  25.8612 24.7479 4.65711
RightHand  1.12791 -12.7145 -9.72294
LeftShoulder1  -0.0171804 -1.42335 -2.49516
LeftArm  18.8365 -20.2089 -79.5239
LeftForeArm  145.194 -43.4782 -170.045
LeftHand  0.881902 5.57743 17.5654
HEad  21.3825 -0.614062 2.74556
RightUpLeg  -19.1153 -10.498 -1.03448
RightLeg  3.20682 1.91162 -0.0150071
RightFoot  15.4878 -0.0175747 0.506764
RightToes  -30.0181 -0.144046 -0.254925
111
root  2.51709 33.9726 -13.9601 6.97472 -6.48188 2.54643
LeftUpLeg  -3.07947 14.5107 -2.77085
LeftLeg  8.64131 13.0197 1.119
LeftFoot  -4.4039 -0.0358219 -1.008
LeftToes  -12.3938 8.556e-007 1.17171e-007
Spine  1.36469 -2.94918 0.533527
Spine1  2.77889 -5.77903 0.905743
RightShoulder  0.00113633 4.81163 4.19223
RightArm  -38.1584 -17.7827 75.5109
RightForeArm  27.0431 23.999 4.49697
RightHand  1.10508 -12.6689 -9.55533
LeftShoulder1  -0.0182135 -1.57756 -2.52274
LeftArm  18.7901 -19.8616 -79.2219
LeftForeArm  146.181 -43.6493 -169.984
LeftHand  0.734548 4.61667 17.6754
HEad  21.4531 -0.547489 2.88738
RightUpLeg  -18.6711 -9.62853 -1.78656
RightLeg  3.03211 0.0243566 0.000561312
RightFoot  15.9922 0.0522944 0.00527265
RightToes  -30.8126 -0.149556 -0.257574
112
root  2.58902 33.9784 -14.0331 6.36721 -5.73372 2.6087
LeftUpLeg  -2.96459 14.3319 -2.76369
LeftLeg  9.32836 12.5379 1.22854
LeftFoot  -4.59504 -0.0345312 -1.01243
LeftToes  -12.211 8.556e-007 1.17171e-007
Spine  1.4584 -2.72788 0.238669
Spine1  2.97851 -5.3355 0.326252
RightShoulder  -0.00163352 4.8702 3.87155
RightArm  -37.5565 -18.1594 75.7378
RightForeArm  27.5755 23.8643 4.46823
RightHand  1.11495 -12.9481 -9.42697
LeftShoulder1  -0.0188337 -1.69356 -2.52472
LeftArm  18.6781 -19.6147 -78.712
LeftForeArm  147.377 -43.9514 -169.877
LeftHand  0.605098 3.67404 18.2947
HEad  21.1592 -0.412292 2.9262
RightUpLeg  -18.2526 -8.9797 -2.33426
RightLeg  3.44273 -1.3628 0.0067266
RightFoot  16.1007 0.107193 -0.38031
RightToes  -31.1348 -0.154233 -0.259776
113
root  2.66821 33.9738 -14.0815 5.86045 -5.07165 2.74311
LeftUpLeg  -2.79624 14.2909 -2.87112
LeftLeg  9.76031 12.0301 1.27038
LeftFoot  -4.75834 -0.0348709 -1.00621
LeftToes  -12.1205 8.556e-007 1.17171e-007
Spine  1.49124 -2.41904 -0.0767742
Spine1  3.05006 -4.72087 -0.288698
RightShoulder  -0.00364258 4.88087 3.67222
RightArm  -37.3199 -18.9354 75.8204
RightForeArm  27.8761 23.9121 4.47823
RightHand  1.10355 -12.9881 -9.29736
LeftShoulder1  -0.019088 -1.95413 -2.47808
LeftArm  18.0806 -19.2156 -78.0353
LeftForeArm  149.316 -44.0708 -169.831
LeftHand  0.502954 2.99255 18.6643
HEad  20.6437 0.0360156 3.15689
RightUpLeg  -17.9243 -9.01171 -2.77788
RightLeg  3.81112 -1.98417 -0.00328845
RightFoot  16.1156 0.132124 -0.555681
RightToes  -31.9482 -0.157564 -0.261917
